<?xml version="1.0" encoding="UTF-8" standalone="no"?>
<svg xmlns="http://www.w3.org/2000/svg" width="200" height="200" viewBox="0 0 200 200">
  <path fill="#e30613" d="M168.1,80.7h-59.4v-15l59.4,0.4V80.7z M138.3,138.3c9.1-7.4,15.8-17.5,19.1-29.1H98.3v74.1l0,0
  c-0.6,0-2.3-0.1-3-0.1c-31.5,0-57.1-25.3-57.1-56.8c0-17.4,7.9-33,20.2-43.5c-2.6,3.6-18.6,29.5-2.6,56.8c0,0,2.7-39.1,35.4-53
  c0,0,4-1.6,4-1.6V40.9l5.4-24.3l9.3,33.6c5.7-0.6,13.1-0.8,25.4,1.3c0,0-12.2-7-30.5-6.6c-0.4,1.7-0.9,2.8-0.9,2.8l-1,2.3v44.8
  h89.3c0-31.5-25.5-57.1-57.1-57.1c-1.4,0-2.7,0.1-4,0.2V16.5c1.3-0.1,2.7-0.2,4-0.2c40.9,0,74.1,33.2,74.1,74.1
  c0,40.9-33.2,74.1-74.1,74.1c-1.6,0-3.1-0.1-4.7-0.2v-21.4C124.3,145.2,132.3,142.9,138.3,138.3"/>
</svg>
